# This file uses centimeters as units for non-parametric coordinates.

mtllib ShopStyle.mtl
g default
v -3.111416 1.119757 4.336636
v 3.111416 1.119757 4.336636
v -3.111416 9.793029 4.336636
v 3.111416 9.793029 4.336636
v -3.111416 9.793029 -4.336636
v 3.111416 9.793029 -4.336636
v -3.111416 1.119757 -4.336636
v 3.111416 1.119757 -4.336636
v -3.111416 7.819174 4.336636
v 3.111416 7.819174 4.336636
v 3.111416 7.819174 -4.336636
v -3.111416 7.819174 -4.336636
v -3.111416 7.298824 4.336636
v 3.111416 7.298824 4.336636
v 3.111416 7.298827 -4.336636
v -3.111416 7.298827 -4.336636
v -5.966322 6.290859 -4.340822
v -5.969614 6.290855 4.331856
v -5.969614 6.811205 4.331856
v -5.966322 6.811205 -4.340822
v -3.111416 9.793029 -3.831861
v 3.111416 9.793029 -3.831861
v 3.111416 7.819174 -3.831861
v 3.111416 7.298827 -3.831861
v 3.111416 1.119757 -3.831861
v -3.111416 1.119757 -3.831861
v -3.111416 7.298827 -3.831861
v -5.966322 6.290859 -3.836046
v -5.966322 6.811205 -3.836046
v -3.111416 7.819174 -3.831861
v -3.111416 9.793029 3.786783
v 3.111416 9.793029 3.786783
v 3.111416 7.819174 3.786783
v 3.111416 7.298824 3.786783
v 3.111416 1.119757 3.786783
v -3.111416 1.119757 3.786783
v -3.111416 7.298824 3.786783
v -5.960823 6.290855 3.794545
v -5.960823 6.811205 3.794545
v -3.111416 7.819174 3.786783
v -5.309509 6.522990 -4.335634
v -5.309509 6.522989 -3.830858
v -5.310299 6.522987 3.787785
v -5.301508 6.522987 4.331856
v -5.301508 7.043337 4.331856
v -5.310299 7.043337 3.787785
v -5.309509 7.043337 -3.830858
v -5.309509 7.043337 -4.335634
v -5.309507 1.129452 -4.335637
v -5.309506 1.129451 -3.830861
v -5.966320 1.125610 -3.836049
v -5.966320 1.125611 -4.340825
v -5.310296 1.129449 3.787782
v -5.960822 1.125608 3.794542
v -5.301506 1.129448 4.331855
v -5.969612 1.125607 4.331856
vt 0.375000 0.000000
vt 0.625000 0.000000
vt 0.375000 0.250000
vt 0.625000 0.250000
vt 0.375000 0.500000
vt 0.625000 0.500000
vt 0.375000 0.750000
vt 0.625000 0.750000
vt 0.375000 1.000000
vt 0.625000 1.000000
vt 0.875000 0.000000
vt 0.875000 0.250000
vt 0.125000 0.000000
vt 0.125000 0.250000
vt 0.375000 0.193105
vt 0.625000 0.193105
vt 0.625000 0.556895
vt 0.875000 0.193105
vt 0.125000 0.193105
vt 0.375000 0.556895
vt 0.375000 0.178107
vt 0.625000 0.178107
vt 0.625000 0.571893
vt 0.875000 0.178107
vt 0.125000 0.178107
vt 0.375000 0.571893
vt 0.125000 0.178107
vt 0.375000 0.178107
vt 0.375000 0.193105
vt 0.125000 0.193105
vt 0.165866 0.250000
vt 0.375000 0.459134
vt 0.625000 0.459134
vt 0.834134 0.250000
vt 0.834134 0.193105
vt 0.834134 0.178107
vt 0.625000 0.790866
vt 0.834134 0.000000
vt 0.165866 0.000000
vt 0.375000 0.790866
vt 0.165866 0.178107
vt 0.165866 0.178107
vt 0.165866 0.193105
vt 0.165866 0.193105
vt 0.336814 0.250000
vt 0.375000 0.288186
vt 0.625000 0.288186
vt 0.663186 0.250000
vt 0.663186 0.193105
vt 0.663186 0.178107
vt 0.625000 0.961814
vt 0.663186 0.000000
vt 0.336814 0.000000
vt 0.375000 0.961814
vt 0.336814 0.178107
vt 0.336814 0.178107
vt 0.336814 0.193105
vt 0.336814 0.193105
vt 0.125000 0.178107
vt 0.165866 0.178107
vt 0.336814 0.178107
vt 0.375000 0.178107
vt 0.375000 0.193105
vt 0.336814 0.193105
vt 0.165866 0.193105
vt 0.125000 0.193105
vt 0.125000 0.178107
vt 0.165866 0.178107
vt 0.165866 0.178107
vt 0.125000 0.178107
vt 0.336814 0.178107
vt 0.336814 0.178107
vt 0.375000 0.178107
vt 0.375000 0.178107
vn -0.000127 0.000000 1.000000
vn 0.000000 0.000000 1.000000
vn 0.000000 0.000000 1.000000
vn 0.000000 0.000000 1.000000
vn 0.000000 1.000000 0.000000
vn 0.000000 1.000000 0.000000
vn 0.000000 1.000000 0.000000
vn 0.000000 1.000000 0.000000
vn 0.000000 0.000000 -1.000000
vn 0.000000 0.000000 -1.000000
vn 0.000000 0.000000 -1.000000
vn -0.000027 0.000000 -1.000000
vn 0.000000 -1.000000 0.000000
vn 0.000000 -1.000000 0.000000
vn 0.000000 -1.000000 0.000000
vn 0.000000 -1.000000 0.000000
vn 1.000000 0.000000 0.000000
vn 1.000000 0.000000 0.000000
vn 1.000000 0.000000 0.000000
vn 1.000000 0.000000 0.000000
vn -1.000000 0.000000 0.000000
vn -1.000000 0.000000 0.000000
vn -1.000000 0.000000 0.000000
vn -1.000000 0.000000 0.000000
vn -0.000067 0.000000 1.000000
vn 0.000000 0.000000 1.000000
vn 1.000000 0.000000 0.000000
vn 1.000000 0.000000 0.000000
vn 0.000000 0.000000 -1.000000
vn -0.000014 0.000000 -1.000000
vn -1.000000 -0.000000 0.000001
vn -1.000000 -0.000000 0.000419
vn -1.000000 0.000000 0.000676
vn -1.000000 0.000000 0.000001
vn 0.000000 0.000000 1.000000
vn 0.000000 0.000000 1.000000
vn 1.000000 0.000000 0.000000
vn 1.000000 0.000000 0.000000
vn 0.000000 0.000000 -1.000000
vn 0.000000 0.000000 -1.000000
vn -1.000000 0.000000 0.000000
vn -1.000000 0.000000 0.000000
vn -1.000000 0.000000 0.000000
vn -1.000000 0.000000 0.000000
vn 0.005847 -0.999983 -0.000001
vn 0.005847 -0.999983 -0.000001
vn 0.005847 -0.999983 -0.000001
vn 0.005847 -0.999983 -0.000001
vn -0.000482 -0.000000 1.000000
vn -0.001786 0.000000 0.999998
vn 0.000001 0.000000 1.000000
vn 0.000001 -0.000000 1.000000
vn -0.334557 0.942376 0.000097
vn -0.333193 0.942859 0.000010
vn -0.332924 0.942953 -0.000000
vn -0.333223 0.942848 0.000000
vn 0.001035 0.000000 -0.999999
vn 0.006018 0.000000 -0.999982
vn 0.007898 0.000000 -0.999969
vn 0.007899 0.000000 -0.999969
vn 0.000000 1.000000 0.000000
vn 0.000000 1.000000 0.000000
vn 1.000000 0.000000 0.000000
vn 1.000000 0.000000 0.000000
vn 1.000000 0.000000 0.000000
vn 1.000000 0.000000 0.000000
vn 0.000000 -1.000000 0.000000
vn 0.000000 -1.000000 0.000000
vn -1.000000 0.000000 0.000000
vn -1.000000 0.000000 0.000000
vn 0.334646 -0.942344 -0.000104
vn 0.333193 -0.942859 -0.000010
vn 0.333217 -0.942850 -0.000149
vn 0.334646 -0.942344 -0.000104
vn -0.999977 -0.000000 -0.006707
vn -1.000000 0.000000 -0.000403
vn -0.334473 0.942405 0.000096
vn -0.333200 0.942856 0.000146
vn -1.000000 0.000000 0.000000
vn -1.000000 0.000000 0.000000
vn 0.000000 1.000000 0.000000
vn 0.000000 1.000000 0.000000
vn 1.000000 0.000000 0.000000
vn 1.000000 0.000000 0.000000
vn 1.000000 0.000000 0.000000
vn 1.000000 0.000000 0.000000
vn 0.000000 -1.000000 0.000000
vn 0.000000 -1.000000 0.000000
vn -1.000000 0.000000 0.000000
vn -1.000000 0.000000 0.000000
vn 0.005826 -0.999983 -0.000001
vn 0.005826 -0.999983 -0.000001
vn 0.005826 -0.999983 -0.000001
vn 0.005826 -0.999983 -0.000001
vn -0.999866 -0.000000 -0.016358
vn -0.999866 0.000000 -0.016359
vn -0.333048 0.942907 0.002079
vn -0.332098 0.943245 -0.000000
vn -1.000000 0.000000 0.000000
vn -1.000000 0.000000 0.000000
vn 0.332835 -0.942985 -0.000000
vn 0.332786 -0.943003 0.000016
vn 0.332835 -0.942985 -0.000000
vn 0.332819 -0.942991 -0.000163
vn 0.333322 -0.942809 -0.002679
vn 0.333322 -0.942809 -0.002679
vn -0.333322 0.942809 0.002679
vn -0.332818 0.942991 0.000163
vn -0.332785 0.943003 -0.000016
vn -0.332835 0.942985 -0.000000
vn 1.000000 0.000001 0.000000
vn 1.000000 0.000001 0.000000
vn 1.000000 0.000001 0.000000
vn 1.000000 0.000001 0.000000
vn -0.007898 -0.000001 0.999969
vn -0.007898 -0.000001 0.999969
vn -0.007898 -0.000001 0.999969
vn -0.007898 -0.000001 0.999969
vn -1.000000 -0.000000 0.000001
vn -1.000000 -0.000000 0.000001
vn 0.007898 0.000001 -0.999969
vn 0.007898 0.000001 -0.999969
vn -0.010392 0.000001 -0.999946
vn -0.010392 0.000001 -0.999946
vn -0.010392 0.000001 -0.999946
vn -0.010392 0.000001 -0.999946
vn 0.999870 0.000000 -0.016155
vn 0.999870 0.000000 -0.016155
vn 0.999870 0.000000 -0.016155
vn 0.999869 0.000000 -0.016155
vn 0.000001 -0.000000 1.000000
vn 0.000001 -0.000000 1.000000
vn -0.999866 -0.000000 -0.016358
vn -0.999866 -0.000000 -0.016358
s 1
g pCube72
usemtl initialShadingGroup
f 9/15/1 10/16/2 4/4/3 3/3/4
s 2
f 21/32/5 22/33/6 6/6/7 5/5/8
s 3
f 5/5/9 6/6/10 11/17/11 12/20/12
s 4
f 7/7/13 8/8/14 25/37/15 26/40/16
s 5
f 22/34/17 23/35/18 11/18/19 6/12/20
s 6
f 12/19/21 30/44/22 21/31/23 5/14/24
s 1
f 13/21/25 14/22/26 10/16/2 9/15/1
s 5
f 23/35/18 24/36/27 15/24/28 11/18/19
s 3
f 12/20/12 11/17/11 15/23/29 16/26/30
s 7
f 17/27/31 28/42/32 29/43/33 20/30/34
s 1
f 1/1/35 2/2/36 14/22/26 13/21/25
s 5
f 24/36/27 25/38/37 8/11/38 15/24/28
s 3
f 16/26/30 15/23/29 8/8/39 7/7/40
s 8
f 7/13/41 26/39/42 27/41/43 16/25/44
s off
f 49/67/45 50/68/46 51/69/47 52/70/48
s 1
f 44/62/49 45/63/50 19/29/51 18/28/52
s 9
f 29/43/53 47/65/54 48/66/55 20/30/56
s 3
f 48/66/57 41/59/58 17/27/59 20/30/60
s 2
f 31/46/61 32/47/62 22/33/6 21/32/5
s 5
f 32/48/63 33/49/64 23/35/18 22/34/17
f 33/49/64 34/50/65 24/36/27 23/35/18
f 34/50/65 35/52/66 25/38/37 24/36/27
s 4
f 26/40/16 25/37/15 35/51/67 36/54/68
s 8
f 27/41/43 26/39/42 36/53/69 37/55/70
s 10
f 28/42/71 42/60/72 43/61/73 38/56/74
s 7
f 29/43/33 28/42/32 38/56/75 39/57/76
s 9
f 39/57/77 46/64/78 47/65/54 29/43/53
s 6
f 21/31/23 30/44/22 40/58/79 31/45/80
s 2
f 3/3/81 4/4/82 32/47/62 31/46/61
s 5
f 10/16/83 33/49/64 32/48/63 4/4/84
f 14/22/85 34/50/65 33/49/64 10/16/83
f 2/2/86 35/52/66 34/50/65 14/22/85
s 4
f 36/54/68 35/51/67 2/10/87 1/9/88
s 8
f 37/55/70 36/53/69 1/1/89 13/21/90
s off
f 54/71/91 53/72/92 55/73/93 56/74/94
s 7
f 39/57/76 38/56/75 18/28/95 19/29/96
s 9
f 45/63/97 46/64/78 39/57/77 19/29/98
s 6
f 31/45/80 40/58/79 9/15/99 3/3/100
s 10
f 16/25/101 27/41/102 42/60/72 41/59/103
f 43/61/73 42/60/72 27/41/102 37/55/104
f 44/62/105 43/61/73 37/55/104 13/21/106
s 1
f 13/21/25 9/15/1 45/63/50 44/62/49
s 9
f 9/15/107 40/58/108 46/64/78 45/63/97
f 47/65/54 46/64/78 40/58/108 30/44/109
f 48/66/55 47/65/54 30/44/109 12/19/110
s 3
f 12/19/12 16/25/30 41/59/58 48/66/57
s off
f 41/59/111 42/60/112 50/68/113 49/67/114
f 42/60/115 28/42/116 51/69/117 50/68/118
s 7
f 28/42/32 17/27/31 52/70/119 51/69/120
s 3
f 17/27/59 41/59/58 49/67/121 52/70/122
s off
f 38/56/123 43/61/124 53/72/125 54/71/126
f 43/61/127 44/62/128 55/73/129 53/72/130
s 1
f 44/62/49 18/28/52 56/74/131 55/73/132
s 7
f 18/28/95 38/56/75 54/71/133 56/74/134
